<mxfile host="app.diagrams.net" modified="2024-01-30T06:13:47.453Z" agent="Mozilla/5.0 (Windows NT 10.0; Win64; x64) AppleWebKit/537.36 (KHTML, like Gecko) Chrome/121.0.0.0 Safari/537.36" etag="lbfic5RpzYQ3d3O-htJK" version="23.0.2" type="github">
  <diagram name="Page-1" id="80d4a630-b321-0f5e-ff81-c5a36ef4752d">
    <mxGraphModel dx="1221" dy="725" grid="1" gridSize="10" guides="1" tooltips="1" connect="1" arrows="1" fold="1" page="1" pageScale="1" pageWidth="1100" pageHeight="850" background="none" math="0" shadow="0">
      <root>
        <mxCell id="0" />
        <mxCell id="1" parent="0" />
        <mxCell id="WHSeSVRyH5Sngl5Yg-VX-25" value="" style="shape=ext;double=1;rounded=0;whiteSpace=wrap;html=1;" vertex="1" parent="1">
          <mxGeometry x="480" y="60" width="330" height="267.5" as="geometry" />
        </mxCell>
        <mxCell id="WHSeSVRyH5Sngl5Yg-VX-24" value="" style="shape=ext;double=1;rounded=0;whiteSpace=wrap;html=1;" vertex="1" parent="1">
          <mxGeometry x="80" y="60" width="330" height="267.5" as="geometry" />
        </mxCell>
        <mxCell id="WHSeSVRyH5Sngl5Yg-VX-1" value="" style="fontColor=#0066CC;verticalAlign=top;verticalLabelPosition=bottom;labelPosition=center;align=center;html=1;outlineConnect=0;fillColor=#CCCCCC;strokeColor=#6881B3;gradientColor=none;gradientDirection=north;strokeWidth=2;shape=mxgraph.networks.security_camera;" vertex="1" parent="1">
          <mxGeometry x="110" y="70" width="100" height="75" as="geometry" />
        </mxCell>
        <mxCell id="WHSeSVRyH5Sngl5Yg-VX-2" value="" style="fontColor=#0066CC;verticalAlign=top;verticalLabelPosition=bottom;labelPosition=center;align=center;html=1;outlineConnect=0;fillColor=#CCCCCC;strokeColor=#6881B3;gradientColor=none;gradientDirection=north;strokeWidth=2;shape=mxgraph.networks.desktop_pc;" vertex="1" parent="1">
          <mxGeometry x="120" y="230" width="50" height="75" as="geometry" />
        </mxCell>
        <mxCell id="WHSeSVRyH5Sngl5Yg-VX-4" value="" style="endArrow=classic;startArrow=classic;html=1;rounded=0;exitX=0.36;exitY=0.79;exitDx=0;exitDy=0;exitPerimeter=0;" edge="1" parent="1" source="WHSeSVRyH5Sngl5Yg-VX-1" target="WHSeSVRyH5Sngl5Yg-VX-2">
          <mxGeometry width="50" height="50" relative="1" as="geometry">
            <mxPoint x="80" y="210" as="sourcePoint" />
            <mxPoint x="110" y="300" as="targetPoint" />
          </mxGeometry>
        </mxCell>
        <mxCell id="WHSeSVRyH5Sngl5Yg-VX-5" value="边端处理摄像头数据" style="text;html=1;strokeColor=none;fillColor=none;align=center;verticalAlign=middle;whiteSpace=wrap;rounded=0;" vertex="1" parent="1">
          <mxGeometry x="100" y="170" width="110" height="30" as="geometry" />
        </mxCell>
        <mxCell id="WHSeSVRyH5Sngl5Yg-VX-6" value="" style="fontColor=#0066CC;verticalAlign=top;verticalLabelPosition=bottom;labelPosition=center;align=center;html=1;outlineConnect=0;fillColor=#CCCCCC;strokeColor=#6881B3;gradientColor=none;gradientDirection=north;strokeWidth=2;shape=mxgraph.networks.tablet;" vertex="1" parent="1">
          <mxGeometry x="210" y="650" width="130" height="80" as="geometry" />
        </mxCell>
        <mxCell id="WHSeSVRyH5Sngl5Yg-VX-7" value="" style="fontColor=#0066CC;verticalAlign=top;verticalLabelPosition=bottom;labelPosition=center;align=center;html=1;outlineConnect=0;fillColor=#CCCCCC;strokeColor=#6881B3;gradientColor=none;gradientDirection=north;strokeWidth=2;shape=mxgraph.networks.wireless_hub;" vertex="1" parent="1">
          <mxGeometry x="300" y="140" width="100" height="90" as="geometry" />
        </mxCell>
        <mxCell id="WHSeSVRyH5Sngl5Yg-VX-8" style="edgeStyle=orthogonalEdgeStyle;rounded=0;orthogonalLoop=1;jettySize=auto;html=1;entryX=0.5;entryY=1;entryDx=0;entryDy=0;entryPerimeter=0;" edge="1" parent="1" source="WHSeSVRyH5Sngl5Yg-VX-2" target="WHSeSVRyH5Sngl5Yg-VX-7">
          <mxGeometry relative="1" as="geometry" />
        </mxCell>
        <mxCell id="WHSeSVRyH5Sngl5Yg-VX-18" value="" style="fontColor=#0066CC;verticalAlign=top;verticalLabelPosition=bottom;labelPosition=center;align=center;html=1;outlineConnect=0;fillColor=#CCCCCC;strokeColor=#6881B3;gradientColor=none;gradientDirection=north;strokeWidth=2;shape=mxgraph.networks.security_camera;" vertex="1" parent="1">
          <mxGeometry x="520" y="70" width="100" height="75" as="geometry" />
        </mxCell>
        <mxCell id="WHSeSVRyH5Sngl5Yg-VX-19" value="" style="fontColor=#0066CC;verticalAlign=top;verticalLabelPosition=bottom;labelPosition=center;align=center;html=1;outlineConnect=0;fillColor=#CCCCCC;strokeColor=#6881B3;gradientColor=none;gradientDirection=north;strokeWidth=2;shape=mxgraph.networks.desktop_pc;" vertex="1" parent="1">
          <mxGeometry x="530" y="230" width="50" height="75" as="geometry" />
        </mxCell>
        <mxCell id="WHSeSVRyH5Sngl5Yg-VX-20" value="" style="endArrow=classic;startArrow=classic;html=1;rounded=0;exitX=0.36;exitY=0.79;exitDx=0;exitDy=0;exitPerimeter=0;" edge="1" parent="1" source="WHSeSVRyH5Sngl5Yg-VX-18" target="WHSeSVRyH5Sngl5Yg-VX-19">
          <mxGeometry width="50" height="50" relative="1" as="geometry">
            <mxPoint x="490" y="210" as="sourcePoint" />
            <mxPoint x="520" y="300" as="targetPoint" />
          </mxGeometry>
        </mxCell>
        <mxCell id="WHSeSVRyH5Sngl5Yg-VX-21" value="边端处理摄像头数据" style="text;html=1;strokeColor=none;fillColor=none;align=center;verticalAlign=middle;whiteSpace=wrap;rounded=0;" vertex="1" parent="1">
          <mxGeometry x="510" y="170" width="110" height="30" as="geometry" />
        </mxCell>
        <mxCell id="WHSeSVRyH5Sngl5Yg-VX-22" value="" style="fontColor=#0066CC;verticalAlign=top;verticalLabelPosition=bottom;labelPosition=center;align=center;html=1;outlineConnect=0;fillColor=#CCCCCC;strokeColor=#6881B3;gradientColor=none;gradientDirection=north;strokeWidth=2;shape=mxgraph.networks.wireless_hub;" vertex="1" parent="1">
          <mxGeometry x="710" y="140" width="100" height="90" as="geometry" />
        </mxCell>
        <mxCell id="WHSeSVRyH5Sngl5Yg-VX-23" style="edgeStyle=orthogonalEdgeStyle;rounded=0;orthogonalLoop=1;jettySize=auto;html=1;entryX=0.5;entryY=1;entryDx=0;entryDy=0;entryPerimeter=0;" edge="1" parent="1" source="WHSeSVRyH5Sngl5Yg-VX-19" target="WHSeSVRyH5Sngl5Yg-VX-22">
          <mxGeometry relative="1" as="geometry" />
        </mxCell>
        <mxCell id="WHSeSVRyH5Sngl5Yg-VX-26" value="" style="shape=ext;double=1;rounded=0;whiteSpace=wrap;html=1;" vertex="1" parent="1">
          <mxGeometry x="890" y="60" width="330" height="267.5" as="geometry" />
        </mxCell>
        <mxCell id="WHSeSVRyH5Sngl5Yg-VX-27" value="" style="fontColor=#0066CC;verticalAlign=top;verticalLabelPosition=bottom;labelPosition=center;align=center;html=1;outlineConnect=0;fillColor=#CCCCCC;strokeColor=#6881B3;gradientColor=none;gradientDirection=north;strokeWidth=2;shape=mxgraph.networks.security_camera;" vertex="1" parent="1">
          <mxGeometry x="920" y="70" width="100" height="75" as="geometry" />
        </mxCell>
        <mxCell id="WHSeSVRyH5Sngl5Yg-VX-28" value="" style="fontColor=#0066CC;verticalAlign=top;verticalLabelPosition=bottom;labelPosition=center;align=center;html=1;outlineConnect=0;fillColor=#CCCCCC;strokeColor=#6881B3;gradientColor=none;gradientDirection=north;strokeWidth=2;shape=mxgraph.networks.desktop_pc;" vertex="1" parent="1">
          <mxGeometry x="930" y="230" width="50" height="75" as="geometry" />
        </mxCell>
        <mxCell id="WHSeSVRyH5Sngl5Yg-VX-29" value="" style="endArrow=classic;startArrow=classic;html=1;rounded=0;exitX=0.36;exitY=0.79;exitDx=0;exitDy=0;exitPerimeter=0;" edge="1" parent="1" source="WHSeSVRyH5Sngl5Yg-VX-27" target="WHSeSVRyH5Sngl5Yg-VX-28">
          <mxGeometry width="50" height="50" relative="1" as="geometry">
            <mxPoint x="890" y="210" as="sourcePoint" />
            <mxPoint x="920" y="300" as="targetPoint" />
          </mxGeometry>
        </mxCell>
        <mxCell id="WHSeSVRyH5Sngl5Yg-VX-30" value="边端处理摄像头数据" style="text;html=1;strokeColor=none;fillColor=none;align=center;verticalAlign=middle;whiteSpace=wrap;rounded=0;" vertex="1" parent="1">
          <mxGeometry x="910" y="170" width="110" height="30" as="geometry" />
        </mxCell>
        <mxCell id="WHSeSVRyH5Sngl5Yg-VX-31" value="" style="fontColor=#0066CC;verticalAlign=top;verticalLabelPosition=bottom;labelPosition=center;align=center;html=1;outlineConnect=0;fillColor=#CCCCCC;strokeColor=#6881B3;gradientColor=none;gradientDirection=north;strokeWidth=2;shape=mxgraph.networks.wireless_hub;" vertex="1" parent="1">
          <mxGeometry x="1110" y="140" width="100" height="90" as="geometry" />
        </mxCell>
        <mxCell id="WHSeSVRyH5Sngl5Yg-VX-32" style="edgeStyle=orthogonalEdgeStyle;rounded=0;orthogonalLoop=1;jettySize=auto;html=1;entryX=0.5;entryY=1;entryDx=0;entryDy=0;entryPerimeter=0;" edge="1" parent="1" source="WHSeSVRyH5Sngl5Yg-VX-28" target="WHSeSVRyH5Sngl5Yg-VX-31">
          <mxGeometry relative="1" as="geometry" />
        </mxCell>
        <mxCell id="WHSeSVRyH5Sngl5Yg-VX-33" value="" style="shape=partialRectangle;whiteSpace=wrap;html=1;bottom=1;right=1;left=1;top=0;fillColor=none;routingCenterX=-0.5;" vertex="1" parent="1">
          <mxGeometry x="590" y="170" width="120" height="60" as="geometry" />
        </mxCell>
        <mxCell id="WHSeSVRyH5Sngl5Yg-VX-34" value="" style="shape=partialRectangle;whiteSpace=wrap;html=1;bottom=1;right=1;left=1;top=0;fillColor=none;routingCenterX=-0.5;strokeColor=default;" vertex="1" parent="1">
          <mxGeometry x="300" y="327.5" width="360" height="60" as="geometry" />
        </mxCell>
        <mxCell id="WHSeSVRyH5Sngl5Yg-VX-35" value="" style="shape=partialRectangle;whiteSpace=wrap;html=1;bottom=1;right=1;left=1;top=0;fillColor=none;routingCenterX=-0.5;strokeColor=default;" vertex="1" parent="1">
          <mxGeometry x="730" y="327.5" width="370" height="60" as="geometry" />
        </mxCell>
        <mxCell id="WHSeSVRyH5Sngl5Yg-VX-37" value="控制器1" style="text;html=1;strokeColor=none;fillColor=none;align=center;verticalAlign=middle;whiteSpace=wrap;rounded=0;" vertex="1" parent="1">
          <mxGeometry x="320" y="92.5" width="60" height="30" as="geometry" />
        </mxCell>
        <mxCell id="WHSeSVRyH5Sngl5Yg-VX-38" value="控制器2" style="text;html=1;strokeColor=none;fillColor=none;align=center;verticalAlign=middle;whiteSpace=wrap;rounded=0;" vertex="1" parent="1">
          <mxGeometry x="730" y="92.5" width="60" height="30" as="geometry" />
        </mxCell>
        <mxCell id="WHSeSVRyH5Sngl5Yg-VX-39" value="控制器3" style="text;html=1;strokeColor=none;fillColor=none;align=center;verticalAlign=middle;whiteSpace=wrap;rounded=0;" vertex="1" parent="1">
          <mxGeometry x="1120" y="92.5" width="60" height="30" as="geometry" />
        </mxCell>
        <mxCell id="WHSeSVRyH5Sngl5Yg-VX-40" value="组网" style="text;html=1;strokeColor=none;fillColor=none;align=center;verticalAlign=middle;whiteSpace=wrap;rounded=0;" vertex="1" parent="1">
          <mxGeometry x="430" y="350" width="60" height="30" as="geometry" />
        </mxCell>
        <mxCell id="WHSeSVRyH5Sngl5Yg-VX-41" value="组网" style="text;html=1;strokeColor=none;fillColor=none;align=center;verticalAlign=middle;whiteSpace=wrap;rounded=0;" vertex="1" parent="1">
          <mxGeometry x="910" y="350" width="60" height="30" as="geometry" />
        </mxCell>
        <mxCell id="WHSeSVRyH5Sngl5Yg-VX-42" value="" style="line;strokeWidth=2;html=1;direction=south;" vertex="1" parent="1">
          <mxGeometry x="270" y="330" width="10" height="320" as="geometry" />
        </mxCell>
        <mxCell id="WHSeSVRyH5Sngl5Yg-VX-43" value="&lt;b&gt;&lt;font color=&quot;#cc0000&quot;&gt;1. 连接控制器1热点并开始配置组网&lt;br&gt;&lt;/font&gt;&lt;/b&gt;&lt;div style=&quot;&quot;&gt;&lt;span style=&quot;background-color: initial;&quot;&gt;&lt;b&gt;&lt;font color=&quot;#cc0000&quot;&gt;2. 组网成功，接收当前控制器发送的连接信息&lt;/font&gt;&lt;/b&gt;&lt;/span&gt;&lt;/div&gt;&lt;div style=&quot;&quot;&gt;&lt;span style=&quot;background-color: initial;&quot;&gt;&lt;b&gt;&lt;font color=&quot;#cc0000&quot;&gt;3. 开始监听消息&lt;/font&gt;&lt;/b&gt;&lt;/span&gt;&lt;/div&gt;" style="text;html=1;strokeColor=none;fillColor=none;align=left;verticalAlign=middle;whiteSpace=wrap;rounded=0;" vertex="1" parent="1">
          <mxGeometry x="150" y="425" width="110" height="130" as="geometry" />
        </mxCell>
        <mxCell id="WHSeSVRyH5Sngl5Yg-VX-44" value="Socket" style="text;html=1;strokeColor=none;fillColor=none;align=center;verticalAlign=middle;whiteSpace=wrap;rounded=0;" vertex="1" parent="1">
          <mxGeometry x="230" y="252.5" width="60" height="30" as="geometry" />
        </mxCell>
        <mxCell id="WHSeSVRyH5Sngl5Yg-VX-45" value="Socket" style="text;html=1;strokeColor=none;fillColor=none;align=center;verticalAlign=middle;whiteSpace=wrap;rounded=0;" vertex="1" parent="1">
          <mxGeometry x="640" y="252.5" width="60" height="30" as="geometry" />
        </mxCell>
        <mxCell id="WHSeSVRyH5Sngl5Yg-VX-48" value="Socket" style="text;html=1;strokeColor=none;fillColor=none;align=center;verticalAlign=middle;whiteSpace=wrap;rounded=0;" vertex="1" parent="1">
          <mxGeometry x="1030" y="252.5" width="60" height="30" as="geometry" />
        </mxCell>
      </root>
    </mxGraphModel>
  </diagram>
</mxfile>
